<svg width="31" height="31" viewBox="0 0 31 31" fill="none" xmlns="http://www.w3.org/2000/svg">
  <path
    d="M15.5 0C6.95354 0 0 6.95294 0 15.5C0 24.0471 6.95354 31 15.5 31C24.0465 31 31 24.0471 31 15.5C31 6.95294 24.0465 0 15.5 0ZM15.5 29.8077C7.6111 29.8077 1.19231 23.3889 1.19231 15.5C1.19231 7.6111 7.6111 1.19231 15.5 1.19231C23.3889 1.19231 29.8077 7.6111 29.8077 15.5C29.8077 23.3889 23.3889 29.8077 15.5 29.8077Z"
    fill="black"/>
  <path
    d="M22.9519 14.9038H16.0961V8.34615C16.0961 8.01648 15.8291 7.75 15.5 7.75C15.1709 7.75 14.9038 8.01648 14.9038 8.34615V14.9038H8.04806C7.71898 14.9038 7.4519 15.1703 7.4519 15.5C7.4519 15.8297 7.71898 16.0962 8.04806 16.0962H14.9038V23.25C14.9038 23.5797 15.1709 23.8462 15.5 23.8462C15.8291 23.8462 16.0961 23.5797 16.0961 23.25V16.0962H22.9519C23.281 16.0962 23.5481 15.8297 23.5481 15.5C23.5481 15.1703 23.281 14.9038 22.9519 14.9038Z"
    fill="black"/>
</svg>
