<svg width="156" height="156" viewBox="0 0 156 156" fill="none" xmlns="http://www.w3.org/2000/svg">
  <path
    d="M145.079 70.4934L141.04 54.3343C142.144 54.0997 142.973 53.1198 142.973 51.9459V49.3405C142.973 43.6837 138.37 39.0817 132.714 39.0817H114.313V33.7076C114.313 30.9239 112.049 28.6595 109.265 28.6595H15.4696C12.686 28.6595 10.4215 30.9239 10.4215 33.7076V78C10.4215 79.3488 11.5151 80.4427 12.8642 80.4427C14.2131 80.4427 15.3069 79.3491 15.3069 78V33.7076C15.3069 33.6177 15.3797 33.5449 15.4696 33.5449H109.265C109.355 33.5449 109.428 33.6177 109.428 33.7076V78.0006C109.428 79.3495 110.521 80.4433 111.87 80.4433C113.219 80.4433 114.313 79.3498 114.313 78.0006V75.2316H143.127C143.129 75.2316 143.131 75.2322 143.133 75.2322C143.136 75.2322 143.138 75.2319 143.14 75.2319C146.686 75.2343 149.696 77.5615 150.73 80.7684H143.135C141.786 80.7684 140.693 81.8619 140.693 83.2111V88.4218C140.693 92.6421 144.126 96.0753 148.346 96.0753H151.114V106.823H144.727C142.629 100.764 136.87 96.4007 130.108 96.4007C123.345 96.4007 117.586 100.764 115.488 106.823H114.312V88.4215C114.312 87.0727 113.219 85.9788 111.87 85.9788C110.521 85.9788 109.427 87.0724 109.427 88.4215V106.822H58.7489C56.6509 100.764 50.892 96.4001 44.1294 96.4001C37.3669 96.4001 31.6077 100.764 29.5099 106.822H15.4696C15.3797 106.822 15.3069 106.749 15.3069 106.659V101.285H25.8914C27.2403 101.285 28.3341 100.192 28.3341 98.8428C28.3341 97.4936 27.2406 96.4001 25.8914 96.4001H2.44268C1.09383 96.4001 0 97.4936 0 98.8428C0 100.192 1.09352 101.285 2.44268 101.285H10.4218V106.659C10.4218 109.443 12.6863 111.707 15.4699 111.707H28.6641C28.6635 111.762 28.6598 111.815 28.6598 111.87C28.6598 120.4 35.5997 127.34 44.1294 127.34C52.6591 127.34 59.599 120.4 59.599 111.87C59.599 111.815 59.5954 111.762 59.5947 111.707H114.643C114.642 111.762 114.638 111.815 114.638 111.87C114.638 120.4 121.578 127.34 130.108 127.34C138.638 127.34 145.578 120.4 145.578 111.87C145.578 111.815 145.574 111.762 145.573 111.707H153.557C154.906 111.707 156 110.614 156 109.265V83.2105C156 76.7779 151.254 71.4334 145.079 70.4934ZM114.313 43.9667H132.714C135.677 43.9667 138.088 46.3774 138.088 49.3405V49.5032H114.313V43.9667ZM114.313 70.3465V54.3882H136.018L140.007 70.3465H114.313ZM44.1294 122.455C38.2931 122.455 33.5449 117.707 33.5449 111.871C33.5449 106.034 38.2931 101.286 44.1294 101.286C49.9657 101.286 54.714 106.034 54.714 111.871C54.714 117.707 49.9657 122.455 44.1294 122.455ZM130.109 122.455C124.272 122.455 119.524 117.707 119.524 111.871C119.524 106.034 124.272 101.286 130.109 101.286C135.945 101.286 140.693 106.034 140.693 111.871C140.693 117.707 135.945 122.455 130.109 122.455ZM151.115 91.1899H148.347C146.82 91.1899 145.578 89.948 145.578 88.4215V85.6531H151.115V91.1899H151.115Z"
    fill="black"/>
  <path d="M44.1294 106.823C41.3458 106.823 39.0814 109.087 39.0814 111.871C39.0814 114.654 41.3458 116.919 44.1294 116.919C46.913 116.919 49.1775 114.654 49.1775 111.871C49.1775 109.087 46.913 106.823 44.1294 106.823Z" fill="black"/>
  <path d="M130.109 106.823C127.325 106.823 125.061 109.087 125.061 111.871C125.061 114.654 127.325 116.919 130.109 116.919C132.892 116.919 135.157 114.654 135.157 111.871C135.157 109.087 132.892 106.823 130.109 106.823Z" fill="black"/>
  <path d="M101.449 96.401H64.9728C63.6239 96.401 62.5301 97.4945 62.5301 98.8437C62.5301 100.193 63.6236 101.286 64.9728 101.286H101.449C102.798 101.286 103.891 100.193 103.891 98.8437C103.891 97.4945 102.798 96.401 101.449 96.401Z" fill="black"/>
  <path d="M38.9186 85.9792H7.65344C6.30459 85.9792 5.21076 87.0727 5.21076 88.4218C5.21076 89.771 6.30429 90.8645 7.65344 90.8645H38.9186C40.2675 90.8645 41.3613 89.771 41.3613 88.4218C41.3613 87.0727 40.2675 85.9792 38.9186 85.9792Z" fill="black"/>
  <path
    d="M79.2388 52.88L72.7904 46.5632C70.3208 44.144 67.0084 42.8 63.5 42.8C59.9916 42.8 56.6792 44.144 54.19 46.5824L47.7612 52.88C45.272 55.3184 43.9 58.5632 43.9 62C43.9 65.4368 45.272 68.6816 47.7612 71.12L54.2096 77.4368C56.6792 79.856 59.9916 81.2 63.5 81.2C66.9104 81.2 70.164 79.9136 72.6336 77.5904L72.6532 77.5712L72.6728 77.552L79.2584 71.1008C81.728 68.6816 83.1 65.4368 83.1 62C83.1 58.5632 81.728 55.3184 79.2388 52.88Z"
    fill="black"/>
  <path
    d="M68.204 73.1168C66.9888 74.2688 65.3228 74.9792 63.4804 74.9792C61.5988 74.9792 59.9132 74.2304 58.6784 73.0208L61.8536 69.9104C62.2652 70.3136 62.8532 70.5824 63.4804 70.5824C64.1272 70.5824 64.6956 70.3328 65.1072 69.9104L71.5556 63.5936C71.9672 63.1904 72.2416 62.6144 72.2416 62C72.2416 61.3664 71.9868 60.8096 71.5556 60.4064C71.144 60.0032 70.556 59.7344 69.9288 59.7344C69.282 59.7344 68.7136 59.984 68.302 60.4064L61.8536 66.7232C60.6188 67.9328 58.9136 68.6816 57.0516 68.6816C55.17 68.6816 53.4844 67.9328 52.2496 66.7232C51.0148 65.5136 50.2504 63.8432 50.2504 62.0192C50.2504 60.176 51.0148 58.5248 52.2496 57.3152L58.698 50.9984C59.9328 49.7888 61.638 49.04 63.5 49.04C65.3816 49.04 67.0672 49.7888 68.302 50.9984L65.1268 54.1088C64.7152 53.7056 64.1272 53.4368 63.5 53.4368C62.8532 53.4368 62.2848 53.6864 61.8732 54.1088L55.4248 60.4256C55.0132 60.8288 54.7388 61.4048 54.7388 62.0192C54.7388 62.6528 54.9936 63.2096 55.4248 63.6128C55.8364 64.016 56.4244 64.2848 57.0516 64.2848C57.6984 64.2848 58.2668 64.0352 58.6784 63.6128L65.1268 57.296C66.3616 56.0864 68.0668 55.3376 69.9288 55.3376C71.7908 55.3376 73.496 56.0864 74.7308 57.296C75.9656 58.5056 76.73 60.176 76.73 62C76.73 63.8432 75.9656 65.4944 74.7308 66.704L68.204 73.1168Z"
    fill="white"/>
</svg>
