<svg width="27" height="27" viewBox="0 0 27 27" fill="none" xmlns="http://www.w3.org/2000/svg">
  <g opacity="1">
    <path d="M13.5 13.2048C16.502 13.2048 18.9357 10.2488 18.9357 6.60243C18.9357 2.95596 18.1367 0 13.5 0C8.86335 0 8.06415 2.95596 8.06415 6.60243C8.06415 10.2488 10.4979 13.2048 13.5 13.2048Z" fill="#FFF"/>
    <path d="M3.233 23.2858C3.23208 23.0635 3.23115 23.2232 3.233 23.2858V23.2858Z" fill="#FFF"/>
    <path d="M23.7666 23.4595C23.7695 23.3986 23.7676 23.0372 23.7666 23.4595V23.4595Z" fill="#FFF"/>
    <path
      d="M23.755 23.0192C23.6543 16.6671 22.8247 14.8571 16.4764 13.7114C16.4764 13.7114 15.5828 14.8501 13.4999 14.8501C11.4171 14.8501 10.5233 13.7114 10.5233 13.7114C4.24425 14.8446 3.36421 16.6278 3.24849 22.8128C3.239 23.3179 3.23461 23.3444 3.23291 23.2858C3.2333 23.3957 3.23376 23.5988 3.23376 23.9532C3.23376 23.9532 4.74514 27 13.4999 27C22.2546 27 23.7661 23.9532 23.7661 23.9532C23.7661 23.7255 23.7663 23.5672 23.7665 23.4595C23.7648 23.4958 23.7614 23.4255 23.755 23.0192Z"
      fill="#FFF"/>
  </g>
</svg>
