<svg width="147" height="147" viewBox="0 0 147 147" fill="none" xmlns="http://www.w3.org/2000/svg">
  <path
    d="M86.8461 47.438C86.1786 46.9048 85.335 46.642 84.4829 46.7015H71.5932L83.7157 33.1673L84.8512 31.909L85.4343 31.1724C85.6369 30.8878 85.8018 30.5782 85.9254 30.2517C86.0646 29.8999 86.1371 29.5251 86.1402 29.1469C86.2257 28.2519 85.7823 27.3888 85.0047 26.9372C83.9961 26.4746 82.8901 26.2636 81.7822 26.3234H66.7135C65.9095 26.2686 65.1131 26.5087 64.4732 26.9986C63.9445 27.4486 63.6503 28.1153 63.6752 28.8093C63.6752 29.8528 64.0232 30.4869 64.7187 30.7121C65.7161 30.9956 66.7515 31.1199 67.7877 31.0803H77.6084C77.1991 31.6531 76.6674 32.3283 76.0125 33.1059L73.496 35.9293L70.0894 39.6121L66.1304 44.0008C64.7597 45.5352 63.8594 46.5584 63.4297 47.0697C62.4553 48.2532 62.5766 49.9922 63.7059 51.0287C64.5154 51.6387 65.5189 51.9329 66.5294 51.8573H84.4522C85.3096 51.9245 86.1621 51.6732 86.8461 51.1515C87.3674 50.6961 87.6597 50.0328 87.644 49.3408C87.6705 48.62 87.3785 47.9241 86.8461 47.438Z"
    fill="black"/>
  <path
    d="M114.007 63.1205C113.469 62.6909 112.789 62.4826 112.104 62.5374H101.792L111.459 51.7346L112.38 50.7218L112.963 50.016C113.128 49.7889 113.262 49.5414 113.362 49.2794C113.478 48.9967 113.541 48.6952 113.546 48.3894C113.623 47.6732 113.275 46.9777 112.656 46.6094C111.849 46.2388 110.965 46.07 110.078 46.1184H97.9251C97.2848 46.0827 96.6526 46.2787 96.1451 46.6708C95.7208 47.0275 95.4833 47.5592 95.5006 48.1132C95.5006 48.9315 95.7768 49.4432 96.3292 49.6477C97.1279 49.869 97.9565 49.9623 98.7844 49.9239H106.641C106.334 50.3842 105.904 50.906 105.352 51.5505L103.326 53.8215L100.687 56.8905L97.6182 60.3891C96.5134 61.6167 95.7872 62.4557 95.4392 62.9057C94.7161 63.8333 94.8089 65.1568 95.654 65.9747C96.2981 66.4538 97.0942 66.6828 97.8944 66.6192H112.134C112.815 66.6736 113.492 66.4772 114.037 66.0667C114.443 65.6988 114.667 65.1717 114.651 64.6243C114.665 64.0531 114.43 63.5041 114.007 63.1205Z"
    fill="black"/>
  <path
    d="M146.2 45.8728C145.533 45.3396 144.689 45.0768 143.837 45.1363H130.855L142.978 31.6021L144.113 30.3438L144.85 29.4538C145.052 29.1691 145.217 28.8596 145.341 28.5331C145.48 28.1813 145.553 27.8065 145.556 27.4283C145.641 26.5333 145.198 25.6701 144.42 25.2186C143.412 24.7559 142.306 24.5453 141.198 24.6048H125.976C125.172 24.5499 124.375 24.7901 123.735 25.28C123.207 25.73 122.912 26.3967 122.937 27.0907C122.937 28.1341 123.285 28.7683 123.981 28.9934C124.978 29.2769 126.014 29.4012 127.05 29.3617H136.87C136.461 29.9345 135.929 30.6096 135.275 31.3872L132.727 34.2721L129.413 37.9549L125.454 42.3435C124.083 43.878 123.183 44.9011 122.753 45.4125C121.779 46.596 121.9 48.3349 123.029 49.3715C123.839 49.9814 124.842 50.2757 125.853 50.2001H143.745C144.611 50.309 145.487 50.09 146.2 49.5863C146.722 49.1309 147.014 48.4677 146.998 47.7756C147.025 47.0548 146.733 46.3589 146.2 45.8728Z"
    fill="black"/>
  <path
    d="M135.612 97.5545C134.738 96.6495 133.4 96.3695 132.236 96.8486C98.9731 110.618 60.8452 94.8162 47.0751 61.5527C40.0828 44.6614 40.5048 25.6099 48.2383 9.04506C48.9629 7.51287 48.3081 5.68337 46.7759 4.95871C45.9895 4.5866 45.0818 4.56626 44.2793 4.90193C7.81171 19.882 -9.60745 61.5887 5.37263 98.0563C20.3527 134.524 62.0594 151.943 98.5274 136.963C115.16 130.131 128.601 117.273 136.165 100.961C136.697 99.8198 136.478 98.469 135.612 97.5545ZM71.4398 136.224C35.388 136.218 6.1675 106.987 6.17364 70.9353C6.17748 47.2627 18.9974 25.4476 39.6758 13.9247C37.2271 21.1929 35.983 28.8124 35.993 36.4818C35.9949 75.9232 67.9703 107.895 107.412 107.894C114.022 107.893 120.6 106.975 126.958 105.166C115.056 124.41 94.067 136.152 71.4398 136.224Z"
    fill="black"/>
</svg>
